<svg width="869" height="475" viewBox="0 0 869 475" fill="none" xmlns="http://www.w3.org/2000/svg">
<g clip-path="url(#clip0_138_186)">
<path d="M47.459 432.283C28.9416 448.072 25.0981 473.97 25.0981 473.97C25.0981 473.97 51.2774 474.267 69.7948 458.477C88.3122 442.687 92.1557 416.79 92.1557 416.79C92.1557 416.79 65.9765 416.493 47.459 432.283Z" fill="#F2F2F2"/>
<path d="M56.0157 438.565C48.1279 461.586 25.4507 474.67 25.4507 474.67C25.4507 474.67 15.562 450.429 23.4497 427.407C31.3375 404.385 54.0147 391.302 54.0147 391.302C54.0147 391.302 63.9034 415.543 56.0157 438.565Z" fill="#F2F2F2"/>
<path d="M249.301 97.9604C245.111 92.5314 239.189 87.5081 238.814 80.8088C238.471 74.6644 243.052 68.5639 241.12 62.6854C239.634 58.1656 234.733 55.4384 229.943 53.9942C220.774 51.2689 210.961 51.6466 202.028 55.0689L202.513 54.7269C197.061 52.7848 190.687 54.7897 186.398 58.5032C182.108 62.2167 179.559 67.364 177.581 72.5221C175.602 77.6803 174.069 83.0271 171.321 87.8629C168.572 92.6987 164.363 97.0964 158.811 98.7677C160.669 102.476 166.48 103.748 169.889 101.193C170.759 100.486 171.542 99.6766 172.22 98.7829C174.493 96.0189 176.766 93.2549 179.039 90.4909C181.378 94.6507 177.884 100.392 180.759 104.243C182.241 106.229 184.949 106.983 187.463 107.524C207.117 111.718 227.505 110.962 246.794 105.324C248.345 104.867 250.055 104.238 250.698 102.834C251.441 101.214 250.402 99.388 249.301 97.9604Z" fill="#2F2E41"/>
<path d="M305.028 119.147C304.906 119.687 304.826 120.235 304.789 120.787L261.832 145.569L251.39 139.558L240.259 154.131L257.709 166.568C259.119 167.573 260.817 168.093 262.547 168.051C264.278 168.009 265.948 167.406 267.308 166.334L311.604 131.388C313.603 132.128 315.78 132.242 317.846 131.715C319.911 131.187 321.767 130.044 323.166 128.436C324.566 126.828 325.442 124.832 325.68 122.713C325.917 120.595 325.504 118.455 324.495 116.577C323.487 114.699 321.93 113.173 320.033 112.201C318.136 111.229 315.987 110.858 313.874 111.137C311.761 111.416 309.782 112.332 308.202 113.763C306.622 115.194 305.515 117.072 305.028 119.147Z" fill="#FFB7B7"/>
<path d="M260.395 146.743L246.512 164.737C246.117 165.249 245.616 165.67 245.044 165.971C244.471 166.272 243.841 166.446 243.195 166.481C242.549 166.517 241.904 166.412 241.302 166.176C240.7 165.939 240.156 165.575 239.708 165.11L223.99 148.788C221.379 146.754 219.681 143.766 219.27 140.481C218.86 137.196 219.769 133.882 221.799 131.267C223.829 128.651 226.814 126.949 230.099 126.532C233.383 126.115 236.698 127.019 239.317 129.044L259.03 140.067C259.595 140.383 260.084 140.817 260.466 141.339C260.847 141.861 261.112 142.459 261.242 143.092C261.371 143.726 261.363 144.38 261.217 145.01C261.071 145.64 260.791 146.231 260.395 146.743Z" fill="#FF407D"/>
<path d="M241.288 460.267L253.548 460.266L259.38 412.978L241.286 412.979L241.288 460.267Z" fill="#FFB7B7"/>
<path d="M238.16 456.264L262.304 456.263H262.305C266.386 456.263 270.299 457.884 273.185 460.77C276.07 463.655 277.692 467.569 277.692 471.649V472.149L238.161 472.151L238.16 456.264Z" fill="#2F2E41"/>
<path d="M157.288 460.267L169.548 460.266L175.38 412.978L157.286 412.979L157.288 460.267Z" fill="#FFB7B7"/>
<path d="M154.16 456.264L178.304 456.263H178.305C182.386 456.263 186.299 457.884 189.185 460.77C192.07 463.655 193.692 467.569 193.692 471.649V472.149L154.161 472.151L154.16 456.264Z" fill="#2F2E41"/>
<path d="M233.925 91.2754C235.202 79.6436 226.808 69.179 215.176 67.9021C203.544 66.6253 193.08 75.0197 191.803 86.6515C190.526 98.2834 198.92 108.748 210.552 110.025C222.184 111.302 232.648 102.907 233.925 91.2754Z" fill="#FFB7B7"/>
<path d="M225.261 120.726L237.743 126.91C237.743 126.91 251.69 151.147 243.69 174.147C239.806 185.314 250.743 220.91 250.743 220.91C250.743 220.91 267.69 382.147 267.743 431.91C246.69 435.147 226.69 439.147 225.69 429.147C224.69 419.147 213.743 300.91 213.743 300.91C213.743 300.91 198.69 432.147 186.69 434.147C174.69 436.147 150.69 433.147 150.69 433.147C150.69 433.147 169.743 240.91 182.743 228.91L184.743 218.91L184.69 129.147L199.668 122L225.261 120.726Z" fill="#2F2E41"/>
<path d="M180.608 256.997C181.99 256.249 183.19 255.208 184.126 253.947C185.061 252.685 185.708 251.234 186.022 249.695C186.336 248.156 186.308 246.567 185.942 245.04C185.575 243.513 184.878 242.085 183.899 240.856L198.416 144.094L179.45 143.184L168.134 239.545C166.179 241.326 164.945 243.761 164.666 246.391C164.387 249.02 165.082 251.66 166.62 253.812C168.157 255.963 170.431 257.475 173.009 258.062C175.587 258.649 178.291 258.27 180.608 256.997Z" fill="#FFB7B7"/>
<path d="M198.004 168.339L175.322 166.907C174.677 166.867 174.048 166.687 173.478 166.381C172.908 166.076 172.411 165.651 172.02 165.135C171.629 164.62 171.354 164.027 171.213 163.396C171.073 162.764 171.07 162.11 171.204 161.478L175.931 139.318C176.157 136.016 177.684 132.94 180.176 130.762C182.667 128.585 185.921 127.485 189.223 127.703C192.524 127.921 195.605 129.44 197.789 131.926C199.972 134.412 201.081 137.663 200.871 140.966L202.772 163.471C202.826 164.115 202.741 164.764 202.522 165.372C202.303 165.981 201.955 166.535 201.503 166.997C201.05 167.459 200.504 167.818 199.9 168.05C199.296 168.281 198.65 168.38 198.004 168.339Z" fill="#FF407D"/>
<path d="M824.886 76.5841H323.292C319.631 76.5841 316.119 78.0387 313.53 80.6278C310.941 83.2169 309.486 86.7285 309.486 90.3901V369.869C309.486 373.53 310.941 377.042 313.53 379.631C316.119 382.22 319.631 383.675 323.292 383.675H824.886C828.548 383.675 832.059 382.22 834.648 379.631C837.237 377.042 838.692 373.53 838.692 369.869V90.3901C838.692 86.7285 837.237 83.2169 834.648 80.6278C832.059 78.0387 828.548 76.5841 824.886 76.5841Z" fill="#3F3D56"/>
<path d="M820.182 100.983H327.996V378.627H820.182V100.983Z" fill="white"/>
<path d="M573.669 93.411C576.457 93.411 578.717 91.1509 578.717 88.3629C578.717 85.575 576.457 83.3149 573.669 83.3149C570.881 83.3149 568.621 85.575 568.621 88.3629C568.621 91.1509 570.881 93.411 573.669 93.411Z" fill="white"/>
<path d="M679.425 378.627H327.996V100.983L679.425 378.627Z" fill="#F2F2F2"/>
<path d="M852.511 373.579H804.477V370.118C804.477 369.936 804.405 369.761 804.276 369.633C804.147 369.504 803.973 369.432 803.791 369.432H787.322C787.232 369.432 787.143 369.449 787.059 369.484C786.976 369.518 786.9 369.569 786.837 369.633C786.773 369.696 786.722 369.772 786.688 369.855C786.653 369.938 786.636 370.028 786.636 370.118V373.579H776.343V370.118C776.343 370.028 776.325 369.938 776.291 369.855C776.256 369.772 776.206 369.696 776.142 369.633C776.078 369.569 776.002 369.518 775.919 369.484C775.836 369.449 775.747 369.432 775.657 369.432H759.188C759.098 369.432 759.008 369.449 758.925 369.484C758.842 369.518 758.766 369.569 758.703 369.633C758.639 369.696 758.588 369.772 758.554 369.855C758.519 369.938 758.502 370.028 758.502 370.118V373.579H748.209V370.118C748.209 370.028 748.191 369.938 748.156 369.855C748.122 369.772 748.071 369.696 748.008 369.633C747.944 369.569 747.868 369.518 747.785 369.484C747.702 369.449 747.612 369.432 747.522 369.432H731.053C730.963 369.432 730.874 369.449 730.791 369.484C730.708 369.518 730.632 369.569 730.568 369.633C730.504 369.696 730.454 369.772 730.419 369.855C730.385 369.938 730.367 370.028 730.367 370.118V373.579H720.074V370.118C720.074 370.028 720.056 369.938 720.022 369.855C719.987 369.772 719.937 369.696 719.873 369.633C719.809 369.569 719.734 369.518 719.651 369.484C719.567 369.449 719.478 369.432 719.388 369.432H702.919C702.829 369.432 702.74 369.449 702.657 369.484C702.573 369.518 702.498 369.569 702.434 369.633C702.37 369.696 702.32 369.772 702.285 369.855C702.251 369.938 702.233 370.028 702.233 370.118V373.579H691.94V370.118C691.94 370.028 691.922 369.938 691.888 369.855C691.853 369.772 691.803 369.696 691.739 369.633C691.675 369.569 691.6 369.518 691.516 369.484C691.433 369.449 691.344 369.432 691.254 369.432H674.785C674.695 369.432 674.606 369.449 674.522 369.484C674.439 369.518 674.363 369.569 674.3 369.633C674.236 369.696 674.185 369.772 674.151 369.855C674.116 369.938 674.099 370.028 674.099 370.118V373.579H663.806V370.118C663.806 370.028 663.788 369.938 663.753 369.855C663.719 369.772 663.668 369.696 663.605 369.633C663.541 369.569 663.465 369.518 663.382 369.484C663.299 369.449 663.209 369.432 663.119 369.432H646.65C646.56 369.432 646.471 369.449 646.388 369.484C646.305 369.518 646.229 369.569 646.165 369.633C646.102 369.696 646.051 369.772 646.017 369.855C645.982 369.938 645.964 370.028 645.964 370.118V373.579H635.671V370.118C635.671 370.028 635.654 369.938 635.619 369.855C635.585 369.772 635.534 369.696 635.47 369.633C635.407 369.569 635.331 369.518 635.248 369.484C635.164 369.449 635.075 369.432 634.985 369.432H505.979C505.889 369.432 505.8 369.449 505.716 369.484C505.633 369.518 505.557 369.569 505.494 369.633C505.43 369.696 505.379 369.772 505.345 369.855C505.31 369.938 505.293 370.028 505.293 370.118V373.579H495V370.118C495 370.028 494.982 369.938 494.947 369.855C494.913 369.772 494.862 369.696 494.799 369.633C494.735 369.569 494.659 369.518 494.576 369.484C494.493 369.449 494.404 369.432 494.313 369.432H477.845C477.755 369.432 477.665 369.449 477.582 369.484C477.499 369.518 477.423 369.569 477.359 369.633C477.296 369.696 477.245 369.772 477.211 369.855C477.176 369.938 477.158 370.028 477.158 370.118V373.579H466.865V370.118C466.865 370.028 466.848 369.938 466.813 369.855C466.779 369.772 466.728 369.696 466.664 369.633C466.601 369.569 466.525 369.518 466.442 369.484C466.359 369.449 466.269 369.432 466.179 369.432H449.71C449.62 369.432 449.531 369.449 449.448 369.484C449.364 369.518 449.289 369.569 449.225 369.633C449.161 369.696 449.111 369.772 449.076 369.855C449.042 369.938 449.024 370.028 449.024 370.118V373.579H438.731V370.118C438.731 370.028 438.713 369.938 438.679 369.855C438.644 369.772 438.594 369.696 438.53 369.633C438.466 369.569 438.391 369.518 438.307 369.484C438.224 369.449 438.135 369.432 438.045 369.432H421.576C421.486 369.432 421.397 369.449 421.313 369.484C421.23 369.518 421.154 369.569 421.091 369.633C421.027 369.696 420.976 369.772 420.942 369.855C420.908 369.938 420.89 370.028 420.89 370.118V373.579H410.597V370.118C410.597 370.028 410.579 369.938 410.545 369.855C410.51 369.772 410.46 369.696 410.396 369.633C410.332 369.569 410.256 369.518 410.173 369.484C410.09 369.449 410.001 369.432 409.911 369.432H393.442C393.352 369.432 393.262 369.449 393.179 369.484C393.096 369.518 393.02 369.569 392.956 369.633C392.893 369.696 392.842 369.772 392.808 369.855C392.773 369.938 392.755 370.028 392.755 370.118V373.579H382.462V370.118C382.462 370.028 382.445 369.938 382.41 369.855C382.376 369.772 382.325 369.696 382.261 369.633C382.198 369.569 382.122 369.518 382.039 369.484C381.956 369.449 381.866 369.432 381.776 369.432H365.307C365.125 369.432 364.951 369.504 364.822 369.633C364.693 369.761 364.621 369.936 364.621 370.118V373.579H354.328V370.118C354.328 370.028 354.31 369.938 354.276 369.855C354.241 369.772 354.191 369.696 354.127 369.633C354.063 369.569 353.988 369.518 353.905 369.484C353.821 369.449 353.732 369.432 353.642 369.432H337.173C336.991 369.432 336.816 369.504 336.688 369.633C336.559 369.761 336.487 369.936 336.487 370.118V373.579H304.921C302.759 373.579 300.617 374.005 298.619 374.832C296.621 375.66 294.806 376.873 293.276 378.402C291.747 379.932 290.534 381.747 289.706 383.745C288.879 385.743 288.453 387.885 288.453 390.048V397.494C288.453 401.862 290.188 406.051 293.276 409.14C296.365 412.228 300.554 413.963 304.921 413.963H852.511C856.879 413.963 861.068 412.228 864.157 409.14C867.245 406.051 868.98 401.862 868.98 397.494V390.048C868.98 387.885 868.554 385.743 867.727 383.745C866.899 381.747 865.686 379.932 864.157 378.402C862.627 376.873 860.812 375.66 858.814 374.832C856.816 374.005 854.674 373.579 852.511 373.579Z" fill="#3F3D56"/>
<path d="M583.556 355.221C583.392 355.611 583.207 355.993 583.002 356.364C581.929 358.346 580.412 360.053 578.569 361.351C576.388 362.886 573.827 363.793 571.166 363.972C568.505 364.151 565.845 363.596 563.478 362.367C561.11 361.139 559.126 359.283 557.741 357.004C556.356 354.724 555.623 352.108 555.624 349.441V347.09H557.618C565.368 352.1 574.333 354.91 583.556 355.221Z" fill="#3F3D56"/>
<path d="M612.021 347.778V349.441C612.022 352.677 610.945 355.821 608.959 358.377C606.974 360.933 604.194 362.755 601.058 363.554C597.922 364.353 594.609 364.085 591.642 362.791C588.676 361.498 586.225 359.253 584.676 356.411C584.463 356.031 584.27 355.639 584.099 355.238C584.525 355.25 584.945 355.256 585.371 355.256C594.773 355.267 603.996 352.679 612.021 347.778Z" fill="#3F3D56"/>
<path d="M631.642 140.991C631.204 140.927 630.761 140.886 630.318 140.857C635.355 152.466 635.704 165.573 631.292 177.434C631.735 177.381 632.173 177.311 632.61 177.23C636.882 176.402 640.721 174.086 643.445 170.692C646.168 167.299 647.599 163.05 647.483 158.7C647.367 154.351 645.711 150.183 642.81 146.94C639.909 143.698 635.952 141.589 631.642 140.991Z" fill="#3F3D56"/>
<path d="M540.424 140.857C539.98 140.886 539.537 140.927 539.1 140.991C534.79 141.589 530.832 143.698 527.931 146.941C525.031 150.183 523.375 154.351 523.259 158.7C523.142 163.05 524.573 167.299 527.297 170.692C530.02 174.086 533.86 176.402 538.131 177.23C538.569 177.311 539.006 177.381 539.449 177.434C535.037 165.573 535.386 152.466 540.424 140.857Z" fill="#3F3D56"/>
<path d="M631.642 140.991C626.837 129.513 617.937 120.231 606.671 114.948C595.405 109.666 582.577 108.759 570.68 112.405C558.784 116.051 548.667 123.989 542.295 134.677C535.924 145.365 533.752 158.04 536.204 170.239C538.655 182.438 545.553 193.291 555.558 200.689C565.563 208.086 577.961 211.501 590.343 210.269C602.725 209.037 614.207 203.246 622.558 194.022C630.909 184.798 635.533 172.799 635.532 160.356C635.53 153.707 634.208 147.125 631.642 140.991ZM631.292 177.434C627.025 188.903 618.62 198.36 607.731 203.942C596.842 209.525 584.258 210.83 572.455 207.6C560.652 204.37 550.485 196.84 543.956 186.49C537.427 176.14 535.008 163.722 537.176 151.679C539.344 139.635 545.941 128.839 555.669 121.416C565.397 113.992 577.551 110.479 589.74 111.567C601.928 112.655 613.268 118.266 621.527 127.296C629.786 136.325 634.366 148.119 634.366 160.356C634.364 166.186 633.323 171.969 631.292 177.434Z" fill="#3F3D56"/>
<path d="M611.035 148.982H559.707C557 148.982 554.403 150.057 552.489 151.971C550.575 153.886 549.5 156.482 549.5 159.189C549.5 161.896 550.575 164.493 552.489 166.407C554.403 168.321 557 169.396 559.707 169.396H611.035C613.742 169.396 616.338 168.321 618.253 166.407C620.167 164.493 621.242 161.896 621.242 159.189C621.242 156.482 620.167 153.886 618.253 151.971C616.338 150.057 613.742 148.982 611.035 148.982Z" fill="#3F3D56"/>
<path d="M631.292 278.52C631.105 278.176 630.913 277.838 630.714 277.505C630.709 277.494 630.703 277.488 630.697 277.476C626.108 269.62 619.554 263.092 611.68 258.533C603.806 253.974 594.882 251.541 585.784 251.473C576.685 251.404 567.726 253.702 559.784 258.142C551.842 262.582 545.191 269.01 540.483 276.796C535.776 284.582 533.174 293.459 532.933 302.554C532.692 311.649 534.82 320.651 539.108 328.676C543.396 336.7 549.697 343.472 557.393 348.326C565.088 353.181 573.913 355.95 583.003 356.364C583.557 356.393 584.116 356.411 584.676 356.411C584.91 356.422 585.137 356.422 585.371 356.422C594.748 356.436 603.955 353.919 612.021 349.137C620.782 343.952 627.858 336.347 632.4 327.235C632.406 327.224 632.412 327.218 632.417 327.206C632.593 326.856 632.762 326.5 632.931 326.139C636.439 318.636 638.119 310.41 637.834 302.133C637.55 293.855 635.307 285.764 631.292 278.52ZM631.793 325.818C631.624 326.18 631.449 326.535 631.269 326.885C626.93 335.511 620.262 342.749 612.021 347.778C603.996 352.679 594.773 355.267 585.371 355.256C584.945 355.256 584.525 355.25 584.099 355.238C583.918 355.238 583.737 355.233 583.557 355.221C574.651 354.91 565.98 352.285 558.396 347.606C550.813 342.926 544.578 336.353 540.306 328.533C536.034 320.712 533.871 311.915 534.031 303.005C534.191 294.095 536.668 285.381 541.218 277.719C545.768 270.057 552.234 263.712 559.981 259.307C567.727 254.903 576.487 252.591 585.398 252.6C594.309 252.608 603.064 254.936 610.803 259.355C618.541 263.775 624.995 270.132 629.53 277.803C629.536 277.814 629.542 277.82 629.548 277.832C629.752 278.164 629.95 278.503 630.137 278.841C634.14 285.972 636.379 293.956 636.667 302.128C636.955 310.301 635.284 318.423 631.793 325.818Z" fill="#3F3D56"/>
<path d="M625.716 280.072C624.694 279.344 623.471 278.95 622.216 278.946H599.276C597.678 278.946 596.146 279.581 595.016 280.711C593.886 281.841 593.251 283.373 593.251 284.971C593.251 286.569 593.886 288.102 595.016 289.232C596.146 290.362 597.678 290.997 599.276 290.997H622.216C622.626 290.998 623.034 290.957 623.435 290.874C623.835 290.788 624.225 290.665 624.602 290.507C625.583 290.084 626.433 289.408 627.067 288.549C627.701 287.689 628.094 286.677 628.208 285.615C628.321 284.553 628.15 283.48 627.712 282.506C627.274 281.532 626.586 280.692 625.716 280.072Z" fill="#3F3D56"/>
<path d="M600.803 288.03C602.493 288.03 603.862 286.66 603.862 284.971C603.862 283.282 602.493 281.912 600.803 281.912C599.114 281.912 597.744 283.282 597.744 284.971C597.744 286.66 599.114 288.03 600.803 288.03Z" fill="#F1F1F1"/>
<path d="M610.745 288.03C612.434 288.03 613.804 286.66 613.804 284.971C613.804 283.282 612.434 281.912 610.745 281.912C609.056 281.912 607.686 283.282 607.686 284.971C607.686 286.66 609.056 288.03 610.745 288.03Z" fill="#F1F1F1"/>
<path d="M620.686 288.03C622.376 288.03 623.745 286.66 623.745 284.971C623.745 283.282 622.376 281.912 620.686 281.912C618.997 281.912 617.627 283.282 617.627 284.971C617.627 286.66 618.997 288.03 620.686 288.03Z" fill="#FF407D"/>
<path d="M735.897 171.153C727.942 175.924 713.769 181.902 699.286 175.759L689.924 171.787L708.685 150.756C693.714 134.248 685.431 112.754 685.454 90.469C685.476 68.1837 693.803 46.7066 708.808 30.2298C723.813 13.7531 744.42 3.45935 766.606 1.3578C788.792 -0.743745 810.965 5.49775 828.797 18.864C846.629 32.2303 858.84 51.762 863.047 73.6467C867.254 95.5314 863.154 118.198 851.549 137.223C839.943 156.248 821.664 170.265 800.28 176.539C778.896 182.813 755.942 180.893 735.897 171.153Z" fill="white"/>
<path d="M735.946 172.287C728.302 176.775 713.741 182.977 698.895 176.679L688.248 172.163L707.343 150.758C695.462 137.395 687.802 120.814 685.326 103.105C682.85 85.3965 685.67 67.351 693.43 51.2414C701.19 35.1319 713.543 21.6787 728.934 12.5762C744.325 3.47369 762.065 -0.871076 779.921 0.0890504C797.776 1.04918 814.948 7.27126 829.274 17.9717C843.6 28.6722 854.44 43.3725 860.427 60.2213C866.415 77.0701 867.283 95.314 862.923 112.655C858.562 129.997 849.168 145.66 835.923 157.673C822.621 169.81 805.99 177.688 788.173 180.292C770.355 182.897 752.165 180.109 735.946 172.287ZM840.686 31.0373C832.87 22.4152 823.432 15.4173 812.912 10.4433C802.391 5.46917 790.993 2.61635 779.37 2.04773C767.747 1.47911 756.125 3.20582 745.169 7.12926C734.213 11.0527 724.137 17.096 715.517 24.914C706.897 32.732 699.902 42.1715 694.93 52.6935C689.959 63.2154 687.109 74.6137 686.543 86.2372C685.978 97.8608 687.707 109.482 691.633 120.437C695.56 131.392 701.605 141.466 709.426 150.084L710.03 150.751L691.599 171.412L699.676 174.838C714.014 180.92 728.202 174.602 735.383 170.296L735.847 170.017L736.334 170.254C754.846 179.248 775.911 181.518 795.914 176.673C815.916 171.828 833.608 160.171 845.952 143.703C858.297 127.234 864.523 106.982 863.562 86.4237C862.601 65.865 854.512 46.2822 840.686 31.0373Z" fill="#FF407D"/>
<path opacity="0.1" d="M850.699 90.0023C850.698 69.3956 842.981 49.5362 829.068 34.335C815.156 19.1337 796.056 9.69237 775.53 7.87019C777.932 7.65979 780.362 7.54596 782.818 7.54596C804.678 7.55915 825.639 16.2523 841.091 31.7144C856.544 47.1765 865.225 68.1421 865.225 90.0022C865.225 111.862 856.544 132.828 841.091 148.29C825.639 163.752 804.678 172.445 782.818 172.459C780.365 172.459 777.94 172.343 775.542 172.133C796.065 170.308 815.162 160.866 829.072 145.665C842.982 130.465 850.698 110.607 850.699 90.0023Z" fill="black"/>
<path d="M786.691 73.5594H727.771V79.0309H786.691V73.5594Z" fill="#FF407D"/>
<path d="M830.464 92.4872H727.771V97.9587H830.464V92.4872Z" fill="#FF407D"/>
<path d="M830.363 111.415H727.771V116.887H830.363V111.415Z" fill="#FF407D"/>
<path d="M382 473.194H1C0.734784 473.194 0.480429 473.089 0.292892 472.901C0.105356 472.714 0 472.459 0 472.194C0 471.929 0.105356 471.674 0.292892 471.487C0.480429 471.299 0.734784 471.194 1 471.194H382C382.265 471.194 382.52 471.299 382.707 471.487C382.895 471.674 383 471.929 383 472.194C383 472.459 382.895 472.714 382.707 472.901C382.52 473.089 382.265 473.194 382 473.194Z" fill="#CBCBCB"/>
<path d="M235.07 75.1905C234.245 71.4451 231.563 68.342 228.474 66.0693C223.381 62.3229 217.136 60.4813 210.825 60.8651C204.514 61.2488 198.538 63.8337 193.937 68.1695C191.366 70.4403 189.512 73.4112 188.603 76.7187C188.169 78.3719 188.146 80.106 188.535 81.7701C188.925 83.4342 189.715 84.9779 190.838 86.2668L191.261 86.532C190.877 84.904 192.142 83.2772 193.652 82.559C195.224 81.9823 196.864 81.6145 198.531 81.4652C201.053 80.9885 203.444 79.976 205.541 78.4961C207.638 77.0162 209.393 75.1033 210.688 72.8868C211.647 75.6148 213.179 78.1059 215.181 80.1924C217.183 82.2789 219.609 83.9125 222.295 84.9833C225.095 86.0784 232.787 87.5843 235.453 86.194C238.854 84.4206 235.896 78.9359 235.07 75.1905Z" fill="#2F2E41"/>
<path d="M548.942 240.405L553.702 217.865H566.092C568.029 217.865 569.487 218.285 570.467 219.125C571.47 219.941 571.972 221.073 571.972 222.52C571.972 222.753 571.949 223.01 571.902 223.29C571.879 223.546 571.844 223.815 571.797 224.095C571.564 225.261 571.144 226.241 570.537 227.035C569.93 227.828 569.219 228.458 568.402 228.925C569.125 229.228 569.685 229.648 570.082 230.185C570.502 230.698 570.712 231.398 570.712 232.285C570.712 232.495 570.689 232.728 570.642 232.985C570.619 233.218 570.584 233.463 570.537 233.72C570.094 235.843 569.09 237.488 567.527 238.655C565.987 239.821 564.015 240.405 561.612 240.405H548.942ZM558.147 226.86H562.417C563.257 226.86 563.899 226.673 564.342 226.3C564.809 225.926 565.124 225.39 565.287 224.69C565.334 224.573 565.357 224.456 565.357 224.34C565.357 224.223 565.357 224.118 565.357 224.025C565.357 223.511 565.182 223.126 564.832 222.87C564.505 222.613 563.945 222.485 563.152 222.485H559.057L558.147 226.86ZM556.222 235.82H560.772C561.659 235.82 562.347 235.633 562.837 235.26C563.35 234.886 563.7 234.268 563.887 233.405C563.91 233.288 563.922 233.183 563.922 233.09C563.945 232.973 563.957 232.868 563.957 232.775C563.957 232.238 563.77 231.841 563.397 231.585C563.024 231.328 562.429 231.2 561.612 231.2H557.202L556.222 235.82ZM578.533 240.755C576.597 240.755 575.057 240.323 573.913 239.46C572.793 238.573 572.233 237.173 572.233 235.26C572.233 234.863 572.257 234.455 572.303 234.035C572.35 233.615 572.42 233.171 572.513 232.705C572.933 230.815 573.633 229.181 574.613 227.805C575.593 226.405 576.772 225.331 578.148 224.585C579.525 223.838 581.007 223.465 582.593 223.465C583.48 223.465 584.25 223.581 584.903 223.815C585.557 224.025 586.07 224.293 586.443 224.62L586.618 223.815H593.198L589.698 240.405H583.993L583.923 239.11C583.153 239.623 582.337 240.031 581.473 240.335C580.61 240.615 579.63 240.755 578.533 240.755ZM581.438 235.995C581.952 235.995 582.453 235.913 582.943 235.75C583.433 235.563 583.865 235.306 584.238 234.98L585.498 229.1C584.985 228.516 584.238 228.225 583.258 228.225C581.228 228.225 579.887 229.73 579.233 232.74C579.093 233.323 579.023 233.825 579.023 234.245C579.023 234.898 579.21 235.353 579.583 235.61C579.957 235.866 580.575 235.995 581.438 235.995ZM598.008 221.61L599.023 216.85H606.128L605.113 221.61H598.008ZM594.543 240.405L597.028 228.61H594.613L596.188 223.815H604.623L601.123 240.405H594.543ZM619.608 248.875C618.162 248.875 617.018 248.56 616.178 247.93C615.362 247.3 614.953 246.331 614.953 245.025C614.953 244.768 614.965 244.511 614.988 244.255C615.012 243.998 615.058 243.718 615.128 243.415L615.898 239.81C615.315 240.113 614.627 240.346 613.833 240.51C613.04 240.673 612.258 240.755 611.488 240.755C609.645 240.755 608.105 240.265 606.868 239.285C605.655 238.281 605.048 236.741 605.048 234.665C605.048 234.268 605.072 233.86 605.118 233.44C605.165 232.996 605.235 232.553 605.328 232.11C605.958 229.123 607.078 226.941 608.688 225.565C610.298 224.165 612.387 223.465 614.953 223.465C616.05 223.465 616.948 223.616 617.648 223.92C618.372 224.2 619.002 224.608 619.538 225.145L620.168 223.815H625.873L621.883 242.645C621.86 242.761 621.837 242.878 621.813 242.995C621.813 243.111 621.813 243.216 621.813 243.31C621.813 243.846 622.198 244.115 622.968 244.115C623.505 244.115 624.053 244.021 624.613 243.835L623.668 248.175C623.015 248.408 622.397 248.583 621.813 248.7C621.253 248.816 620.518 248.875 619.608 248.875ZM614.148 235.96C614.708 235.96 615.198 235.89 615.618 235.75C616.062 235.61 616.493 235.4 616.913 235.12L618.138 229.24C617.835 228.913 617.508 228.668 617.158 228.505C616.808 228.341 616.365 228.26 615.828 228.26C614.848 228.26 614.043 228.54 613.413 229.1C612.807 229.66 612.363 230.628 612.083 232.005C612.013 232.355 611.955 232.681 611.908 232.985C611.862 233.288 611.838 233.568 611.838 233.825C611.838 234.595 612.025 235.143 612.398 235.47C612.772 235.796 613.355 235.96 614.148 235.96Z" fill="#1B3C73"/>
<path d="M625.3 240.405L630.06 217.865H636.64L634.96 225.81L643.465 217.865H650.955L641.05 227.105L646.755 240.405H639.755L636.115 231.305L633.245 233.895L631.88 240.405H625.3ZM655.79 240.755C653.247 240.755 651.264 240.218 649.84 239.145C648.417 238.048 647.705 236.45 647.705 234.35C647.705 234 647.717 233.638 647.74 233.265C647.787 232.891 647.857 232.506 647.95 232.11C648.557 229.31 649.782 227.175 651.625 225.705C653.469 224.211 656.082 223.465 659.465 223.465C662.172 223.465 664.214 224.036 665.59 225.18C666.967 226.323 667.655 227.898 667.655 229.905C667.655 230.255 667.632 230.616 667.585 230.99C667.562 231.34 667.504 231.713 667.41 232.11C666.827 234.933 665.579 237.08 663.665 238.55C661.752 240.02 659.127 240.755 655.79 240.755ZM656.805 235.96C657.879 235.96 658.719 235.656 659.325 235.05C659.955 234.443 660.41 233.463 660.69 232.11C660.83 231.48 660.9 230.92 660.9 230.43C660.9 229.683 660.702 229.135 660.305 228.785C659.932 228.435 659.314 228.26 658.45 228.26C657.4 228.26 656.572 228.575 655.965 229.205C655.382 229.811 654.95 230.78 654.67 232.11C654.53 232.81 654.46 233.405 654.46 233.895C654.46 234.618 654.635 235.143 654.985 235.47C655.359 235.796 655.965 235.96 656.805 235.96ZM674.36 240.755C672.937 240.755 671.618 240.65 670.405 240.44C669.215 240.253 668.293 240.008 667.64 239.705L668.62 234.98C669.367 235.353 670.277 235.645 671.35 235.855C672.447 236.065 673.392 236.17 674.185 236.17C675.025 236.17 675.667 236.146 676.11 236.1C676.553 236.053 676.81 235.855 676.88 235.505C676.973 235.108 676.658 234.805 675.935 234.595C675.212 234.385 674.302 234.081 673.205 233.685C672.038 233.218 671.152 232.693 670.545 232.11C669.938 231.503 669.635 230.733 669.635 229.8C669.635 229.613 669.647 229.426 669.67 229.24C669.693 229.053 669.728 228.855 669.775 228.645C670.125 226.988 671.012 225.716 672.435 224.83C673.882 223.92 676.063 223.465 678.98 223.465C680.053 223.465 681.138 223.546 682.235 223.71C683.355 223.873 684.218 224.06 684.825 224.27L683.845 228.89C683.215 228.586 682.503 228.365 681.71 228.225C680.917 228.085 680.182 228.015 679.505 228.015C678.758 228.015 678.082 228.05 677.475 228.12C676.892 228.19 676.553 228.388 676.46 228.715C676.39 229.088 676.67 229.356 677.3 229.52C677.93 229.683 678.77 229.94 679.82 230.29C681.267 230.733 682.282 231.27 682.865 231.9C683.472 232.506 683.775 233.253 683.775 234.14C683.775 234.35 683.752 234.56 683.705 234.77C683.682 234.98 683.647 235.213 683.6 235.47C683.227 237.15 682.328 238.456 680.905 239.39C679.482 240.3 677.3 240.755 674.36 240.755Z" fill="#FF407D"/>
<path d="M508.621 202.176C509.405 201.412 509.797 201.03 510.246 200.887C510.642 200.761 511.067 200.761 511.463 200.887C511.912 201.03 512.304 201.412 513.088 202.176L530.206 218.854C531.97 220.572 532.852 221.431 532.917 222.171C532.973 222.812 532.717 223.442 532.229 223.862C531.667 224.346 530.435 224.346 527.973 224.346H493.736C491.273 224.346 490.042 224.346 489.48 223.862C488.992 223.442 488.736 222.812 488.792 222.171C488.857 221.431 489.739 220.572 491.503 218.854L508.621 202.176Z" fill="#FF407D"/>
<path d="M489.5 229.652C489.5 228.548 490.395 227.652 491.5 227.652H510.377C521.423 227.652 530.377 236.606 530.377 247.652V248.495C530.377 249.6 529.482 250.495 528.377 250.495H491.5C490.395 250.495 489.5 249.6 489.5 248.495V229.652Z" fill="#1B3C73"/>
</g>
<defs>
<clipPath id="clip0_138_186">
<rect width="868.98" height="474.67" fill="white"/>
</clipPath>
</defs>
</svg>
